<?xml version="1.0" standalone="no"?>
<svg version="1.0" xmlns="http://www.w3.org/2000/svg"
 width="512.000000pt" height="512.000000pt" viewBox="0 0 512.000000 512.000000"
 preserveAspectRatio="xMidYMid meet">

<g transform="translate(0.000000,512.000000) scale(0.100000,-0.100000)"
fill="#177f75" stroke="none">
<path d="M500 5104 c-234 -50 -436 -254 -485 -489 -22 -105 -22 -4005 0 -4110
50 -237 252 -439 491 -490 104 -22 4004 -22 4109 0 181 38 349 168 433 335 77
153 72 -4 72 2210 0 2214 5 2057 -72 2210 -84 167 -252 297 -433 335 -102 21
-4015 21 -4115 -1z m3980 -2544 l0 -1920 -1920 0 -1920 0 0 1920 0 1920 1920
0 1920 0 0 -1920z"/>
<path d="M2240 3200 l0 -320 -320 0 -320 0 0 -320 0 -320 320 0 320 0 0 -320
0 -320 320 0 320 0 0 320 0 320 320 0 320 0 0 320 0 320 -320 0 -320 0 0 320
0 320 -320 0 -320 0 0 -320z"/>
</g>
</svg>
